<svg
  id="iadorequotes-logo"
  class="iadorequotes-logo-svg"
  xmlns="http://www.w3.org/2000/svg"
  viewBox="0 0 600 210"
  fill="white"
>
  <path d="M104.3 0H40C17.9 0 0 17.9 0 40v57.1C0 119.1 17.9 137 40 137h18.6l19.7 30.8c1.2 1.8 3.8 1.8 5 0l19.7-30.8h1.3c22.1 0 40-17.9 40-39.9V40C144.3 17.9 126.4 0 104.3 0z" />
  <path d="M185 66h14l25 77h-14l-5-17h-26l-5 17h-14l25-77zm15.9 45.5l-9-30.2-9 30.2h18zM240.1 66v77h-13V66h13zm30.6 0h13v77h-13V66zm54 0h14l25 77h-14l-5-17h-26l-5 17h-14l25-77zm15.9 45.5l-9-30.2-9 30.2h18zM373.1 78.9c-4.7-4.5-11.3-6.8-19.7-6.8s-15 2.3-19.7 6.8c-4.7 4.5-7.1 10.8-7.1 19s2.4 14.5 7.1 19c4.7 4.5 11.3 6.8 19.7 6.8s15-2.3 19.7-6.8c4.7-4.5 7.1-10.8 7.1-19s-2.4-14.5-7.1-19zm-33.4-9.5c7.2-6.8 16.7-10.2 28.5-10.2s21.3 3.4 28.5 10.2c7.2 6.8 10.8 15.8 10.8 27s-3.6 20.2-10.8 27c-7.2 6.8-16.7 10.2-28.5 10.2s-21.3-3.4-28.5-10.2c-7.2-6.8-10.8-15.8-10.8-27s3.6-20.2 10.8-27zM420.1 66v77h-13V66h13zm30.6 0h13v77h-13V66zm54 0h14l25 77h-14l-5-17h-26l-5 17h-14l25-77zm15.9 45.5l-9-30.2-9 30.2h18z"/>
  <path d="M182 176h14l25 77h-14l-5-17h-26l-5 17h-14l25-77zm15.9 45.5l-9-30.2-9 30.2h18zM237.1 176v77h-13v-77h13zm30.6 0h13v77h-13v-77zm54 0h14l25 77h-14l-5-17h-26l-5 17h-14l25-77zm15.9 45.5l-9-30.2-9 30.2h18zM370.1 176h13l18.5 50.4 18.5-50.4h13v77h-12.2v-52.9l-15.7 40.5h-7.5l-15.7-40.5v52.9h-12.2v-77zM461.1 176h41.9v10.2h-28.9v22.3h26.1v10.2h-26.1v24.1h28.9v10.2h-41.9v-77z"/>
  <path d="M300 205c5-10 15-20 30-30 15 10 25 20 30 30-15 10-25 20-30 30-5-10-15-20-30-30z" />
</svg>